HIERARCHY
ROOT hip
{
  OFFSET 0 0 0
  CHANNELS 6 Xposition Yposition Zposition Zrotation Yrotation Xrotation
  JOINT abdomen
  {
    OFFSET 0 20.6881 -0.73152
    CHANNELS 3 Zrotation Xrotation Yrotation
    JOINT chest
    {
      OFFSET 0 11.7043 -0.48768
      CHANNELS 3 Zrotation Xrotation Yrotation
      JOINT neck
      {
        OFFSET 0 22.1894 -2.19456
        CHANNELS 3 Zrotation Xrotation Yrotation
        JOINT head
        {
          OFFSET -0.24384 7.07133 1.2192
          CHANNELS 3 Zrotation Xrotation Yrotation
          JOINT leftEye
          {
            OFFSET 4.14528 8.04674 8.04672
            CHANNELS 3 Zrotation Xrotation Yrotation
            End Site
            {
              OFFSET 1 0 0
            }
          }
          JOINT rightEye
          {
            OFFSET -3.6576 8.04674 8.04672
            CHANNELS 3 Zrotation Xrotation Yrotation
            End Site
            {
              OFFSET 1 0 0
            }
          }
        }
      }
      JOINT rCollar
      {
        OFFSET -2.68224 19.2634 -4.8768
        CHANNELS 3 Zrotation Xrotation Yrotation
        JOINT rShldr
        {
          OFFSET -8.77824 -1.95073 1.46304
          CHANNELS 3 Zrotation Xrotation Yrotation
          JOINT rForeArm
          {
            OFFSET -28.1742 -1.7115 0.48768
            CHANNELS 3 Zrotation Xrotation Yrotation
            JOINT rHand
            {
              OFFSET -22.5879 0.773209 7.07136
              CHANNELS 3 Zrotation Xrotation Yrotation
              JOINT rThumb1
              {
                OFFSET -1.2192 -0.487915 3.41376
                CHANNELS 3 Zrotation Xrotation Yrotation
                JOINT rThumb2
                {
                  OFFSET -3.37035 -0.52449 3.41376
                  CHANNELS 3 Zrotation Xrotation Yrotation
                  End Site
                  {
                    OFFSET -1.78271 -1.18214 1.43049
                  }
                }
              }
              JOINT rIndex1
              {
                OFFSET -7.75947 0.938293 5.60832
                CHANNELS 3 Zrotation Xrotation Yrotation
                JOINT rIndex2
                {
                  OFFSET -2.54057 -0.884171 1.56538
                  CHANNELS 3 Zrotation Xrotation Yrotation
                  End Site
                  {
                    OFFSET -1.62519 -0.234802 1.16502
                  }
                }
              }
              JOINT rMid1
              {
                OFFSET -8.24714 1.18213 3.41376
                CHANNELS 3 Zrotation Xrotation Yrotation
                JOINT rMid2
                {
                  OFFSET -3.10165 -0.590103 1.0647
                  CHANNELS 3 Zrotation Xrotation Yrotation
                  End Site
                  {
                    OFFSET -2.48547 -0.328903 0.83742
                  }
                }
              }
              JOINT rRing1
              {
                OFFSET -8.82822 0.546677 1.51678
                CHANNELS 3 Zrotation Xrotation Yrotation
                JOINT rRing2
                {
                  OFFSET -2.60934 -0.819778 -0.0198488
                  CHANNELS 3 Zrotation Xrotation Yrotation
                  End Site
                  {
                    OFFSET -2.33842 -0.294052 0.168128
                  }
                }
              }
              JOINT rPinky1
              {
                OFFSET -8.27202 -0.0477905 -0.4584
                CHANNELS 3 Zrotation Xrotation Yrotation
                JOINT rPinky2
                {
                  OFFSET -1.82734 -0.647385 -0.700984
                  CHANNELS 3 Zrotation Xrotation Yrotation
                  End Site
                  {
                    OFFSET -1.69225 -0.51767 -0.607171
                  }
                }
              }
            }
          }
        }
      }
      JOINT lCollar
      {
        OFFSET 2.68224 19.2634 -4.8768
        CHANNELS 3 Zrotation Xrotation Yrotation
        JOINT lShldr
        {
          OFFSET 8.77824 -1.95073 1.46304
          CHANNELS 3 Zrotation Xrotation Yrotation
          JOINT lForeArm
          {
            OFFSET 28.1742 -1.7115 0.48768
            CHANNELS 3 Zrotation Xrotation Yrotation
            JOINT lHand
            {
              OFFSET 22.5879 0.773209 7.07136
              CHANNELS 3 Zrotation Xrotation Yrotation
              JOINT lThumb1
              {
                OFFSET 1.2192 -0.487915 3.41376
                CHANNELS 3 Zrotation Xrotation Yrotation
                JOINT lThumb2
                {
                  OFFSET 3.37035 -0.52449 3.41376
                  CHANNELS 3 Zrotation Xrotation Yrotation
                  End Site
                  {
                    OFFSET 1.78271 -1.18214 1.43049
                  }
                }
              }
              JOINT lIndex1
              {
                OFFSET 7.75947 0.938293 5.60832
                CHANNELS 3 Zrotation Xrotation Yrotation
                JOINT lIndex2
                {
                  OFFSET 2.54057 -0.884171 1.56538
                  CHANNELS 3 Zrotation Xrotation Yrotation
                  End Site
                  {
                    OFFSET 1.62519 -0.234802 1.16502
                  }
                }
              }
              JOINT lMid1
              {
                OFFSET 8.24714 1.18213 3.41376
                CHANNELS 3 Zrotation Xrotation Yrotation
                JOINT lMid2
                {
                  OFFSET 3.10165 -0.590103 1.0647
                  CHANNELS 3 Zrotation Xrotation Yrotation
                  End Site
                  {
                    OFFSET 2.48547 -0.328903 0.83742
                  }
                }
              }
              JOINT lRing1
              {
                OFFSET 8.82822 0.546677 1.51678
                CHANNELS 3 Zrotation Xrotation Yrotation
                JOINT lRing2
                {
                  OFFSET 2.60934 -0.819778 -0.0198488
                  CHANNELS 3 Zrotation Xrotation Yrotation
                  End Site
                  {
                    OFFSET 2.33842 -0.294052 0.168128
                  }
                }
              }
              JOINT lPinky1
              {
                OFFSET 8.27202 -0.0477905 -0.4584
                CHANNELS 3 Zrotation Xrotation Yrotation
                JOINT lPinky2
                {
                  OFFSET 1.82734 -0.647385 -0.700984
                  CHANNELS 3 Zrotation Xrotation Yrotation
                  End Site
                  {
                    OFFSET 1.69225 -0.51767 -0.607171
                  }
                }
              }
            }
          }
        }
      }
    }
  }
  JOINT rButtock
  {
    OFFSET -8.77824 4.35084 1.2192
    CHANNELS 3 Zrotation Xrotation Yrotation
    JOINT rThigh
    {
      OFFSET 0 -1.70687 -2.19456
      CHANNELS 3 Zrotation Xrotation Yrotation
      JOINT rShin
      {
        OFFSET 0 -36.8199 0.73152
        CHANNELS 3 Zrotation Xrotation Yrotation
        JOINT rFoot
        {
          OFFSET 0.73152 -45.1104 -5.12064
          CHANNELS 3 Zrotation Xrotation Yrotation
          End Site
          {
            OFFSET -1.1221 -3.69964 12.103
          }
        }
      }
    }
  }
  JOINT lButtock
  {
    OFFSET 8.77824 4.35084 1.2192
    CHANNELS 3 Zrotation Xrotation Yrotation
    JOINT lThigh
    {
      OFFSET 0 -1.70687 -2.19456
      CHANNELS 3 Zrotation Xrotation Yrotation
      JOINT lShin
      {
        OFFSET 0 -36.8199 0.73152
        CHANNELS 3 Zrotation Xrotation Yrotation
        JOINT lFoot
        {
          OFFSET -0.73152 -45.1104 -5.12064
          CHANNELS 3 Zrotation Xrotation Yrotation
          End Site
          {
            OFFSET 1.1221 -3.69964 12.103
          }
        }
      }
    }
  }
}
MOTION
Frames:	5
Frame Time:	0.03333
0.0 0.0 0.0 0.0 0.0 0.0 0.0 0.0 0.0 0.0 0.0 0.0 0.0 0.0 0.0 0.0 0.0 0.0 0.0 0.0 0.0 0.0 0.0 0.0 0.0 0.0 0.0 0.0 0.0 0.0 0.0 0.0 0.0 0.0 0.0 0.0 0.0 0.0 0.0 0.0 0.0 0.0 0.0 0.0 0.0 0.0 0.0 0.0 0.0 0.0 0.0 0.0 0.0 0.0 0.0 0.0 0.0 0.0 0.0 0.0 0.0 0.0 0.0 0.0 0.0 0.0 0.0 0.0 0.0 0.0 0.0 0.0 0.0 0.0 0.0 0.0 0.0 0.0 0.0 0.0 0.0 0.0 0.0 0.0 0.0 0.0 0.0 0.0 0.0 0.0 0.0 0.0 0.0 0.0 0.0 0.0 0.0 0.0 0.0 0.0 0.0 0.0 0.0 0.0 0.0 0.0 0.0 0.0 0.0 0.0 0.0 0.0 0.0 0.0 0.0 0.0 0.0 0.0 0.0 0.0 0.0 0.0 0.0 0.0 0.0 0.0 0.0 0.0 0.0 0.0 0.0 0.0
-0.061 61.460300000000004 -0.0615 -0.585297 47.963797 -0.72003 1.906709 2.100127 -57.727917 -4.173175 6.623737 31.904925 -14.556913 -11.569815 -74.561685 50.784185 30.06896 97.118631 -158.413513 -5.653582 -29.041996 -36.184611 7.32663 -22.175628 -65.822309 -39.297281 172.114892 -149.797594 -11.334304 165.43759 151.116397 1.140979 -23.713761 -43.49469 74.470045 -29.387707 6.885437 0.528754 33.241822 96.153891 42.965493 42.214318 89.701752 9.153429 -118.568939 -10.473874 -75.066647 44.935715 105.873603 1.816295 172.74344 -149.655135 13.521336 58.675399 -101.543452 8.110866 -106.023144 109.993557 18.000374 -64.889972 33.969735 54.986877 -50.335372 -80.132466 62.572696 158.289169 84.860731 -51.761188 -176.331987 78.582311 -86.994362 89.213374 139.355319 83.23018 60.938906 -166.701584 -29.408185 -12.948867 -12.157537 16.301781 -104.905219 144.718407 31.313691 -119.156102 175.601647 11.817307 -70.176799 -53.569743 73.491238 100.840665 -64.772725 -47.443636 -106.175262 26.705076 -54.747036 172.21613 129.307439 78.359765 -30.559549 -142.782655 -24.015084 -51.483425 115.032654 -42.833482 64.885479 8.212221 21.657865 -5.360327 -7.288261 60.806971 180.0 -14.934945 62.769605 8.264686 5.551629 -4.397788 104.199128 70.071414 7.53438 -86.907802 -63.598834 35.268365 -99.798395 13.617392 67.754793 165.333163 3.053379 5.069651 145.076934 76.485938 66.137286 -86.72013
-1.7921 62.496700000000004 -0.8562000000000001 -1.162064 59.635711 10.372832 -4.454269 8.548498 -0.0 4.742691 -10.982603 -0.257937 -13.519559 14.518515 -43.033367 29.30669 -8.363903 33.912777 -3.219984 0.011677 -0.415439 -3.529941 1.032673 -32.604406 -162.799173 -49.484901 165.563541 114.462565 41.11841 -114.40104 108.015538 -19.444045 55.401671 -170.929569 40.530516 136.089707 -81.648772 37.104478 44.23323 -111.212382 -24.992713 90.044643 26.863492 -41.806201 -15.412789 -108.228712 35.690709 89.68803 7.127102 -23.429948 -0.524669 -113.852529 68.210943 111.840396 -85.82863 -77.711767 -88.832966 -141.182992 -28.21251 -156.486811 -149.757373 37.084003 178.780021 -132.016217 -42.628325 -136.872661 6.945178 -61.333467 24.880012 89.576389 -7.036908 141.065819 -12.084257 43.842881 95.919844 -167.012699 -20.433929 -134.405936 32.869085 9.97796 7.487251 130.517648 -36.960746 -85.733421 -47.59859 -76.028867 -22.334919 168.185876 -62.999224 -127.717591 0.364563 2.409643 7.39821 -171.507667 -1.790332 -135.067584 141.210685 18.437561 -162.840778 138.703637 1.346325 -174.792429 2.971923 38.972272 -38.607664 151.743281 32.350034 139.04033 2.037385 -3.997321 -0.0 -8.365165 -44.046986 -5.956952 35.995416 61.242139 63.961447 38.88774 67.002532 -133.071334 1.894663 -10.996096 -6.285227 1.706419 -32.175505 0.937586 -44.159679 57.507001 -60.669844 93.538971 -20.382816 165.417341
-3.5584 67.6624 -0.8586999999999999 -2.768635 59.044705 6.511672 -4.253921 10.309246 -157.430737 1.978773 12.123937 161.133732 13.596617 22.435459 88.03416 -35.376686 11.204116 -99.654854 -11.231723 0.526448 -5.350012 -8.368625 1.960919 -26.332239 4.430087 10.114129 -2.216424 -111.403322 -12.418983 139.19192 -96.221504 -28.94363 -101.81409 16.99909 -42.085788 -2.69592 8.289988 -0.49171 14.261539 -28.76929 46.792582 7.169811 -140.75039 -52.532739 133.079147 -115.085671 81.009627 147.806436 -160.225405 -20.28617 147.445609 -12.145174 63.169379 11.637098 -150.709858 0.191876 -179.228279 -147.548363 -50.665721 -166.3341 -153.678703 -11.616574 -168.550123 -126.402088 -41.923718 -148.188136 -0.123961 -26.841616 3.306546 77.913462 -17.283863 176.415178 18.210852 15.745103 73.960721 -124.576696 -63.446944 -99.399747 -17.011166 -42.485327 -9.187023 112.919604 -20.362149 -122.380969 0.6468 -57.385295 2.750109 165.131763 87.840068 -170.207712 75.764134 66.746123 -76.700567 -6.254623 -78.433595 -10.919403 124.381424 8.243373 -148.247214 145.808705 -37.532199 -147.307224 -124.024277 -85.483363 -112.392585 19.856618 85.79206 -28.418198 -81.219019 25.653475 -41.026705 102.012768 -7.622692 45.429236 52.946903 59.552506 -120.768324 60.426573 19.600963 31.557087 158.588214 70.135337 22.633304 -176.484277 31.030675 -6.796578 -29.383046 67.963344 99.049073 -66.339322 12.530496 -24.230713
-4.4606 70.7607 -0.2987 -6.18373 54.30288 1.757011 -1.337103 15.299993 0.299138 2.43558 -17.808416 2.886137 7.431005 39.532094 153.476495 -23.901092 47.864658 -154.164054 -14.518459 2.575783 -20.018535 -9.189949 0.612727 -7.612694 -140.38923 39.069262 148.143186 -69.175236 19.977928 24.614179 177.016353 -9.339328 -137.269012 -8.716196 40.822198 -11.915725 178.049521 -13.645739 55.377645 52.168668 -42.902462 78.317129 -132.443851 -3.893137 117.514061 17.501846 3.734579 -45.793986 -161.05435 18.123282 142.549229 -4.751385 -24.087382 -25.326855 -143.918546 -9.269051 -171.436508 -148.082088 -11.518978 -175.428642 -27.694593 -32.559319 10.037693 -105.625858 87.003659 174.089274 165.507128 -49.612502 -166.884182 -96.271887 21.585642 106.162128 64.284661 52.923367 -99.23501 0.433045 13.895103 7.79265 1.613184 -26.606167 7.116161 176.821151 -69.698175 -71.66721 74.732729 33.064562 -27.300267 -26.161048 16.91247 -29.333507 -1.948806 30.527778 6.518415 166.83924 23.169281 -78.798292 125.921269 34.068466 -149.765943 -82.408902 -85.604105 -54.841456 -36.019903 -45.266928 -37.914046 14.588736 0.216801 5.237862 85.527458 60.719205 47.605721 -128.748446 12.75778 -0.0 77.571395 29.831678 38.273789 91.724628 62.566353 163.679116 150.347743 55.482088 34.641521 -167.883065 18.640068 -127.53496 -63.642602 -55.388915 24.273662 -173.969964 45.540735 -105.816439
